HIERARCHY
ROOT	RokokoGuy_Hips
{
	OFFSET	0.000	0.000	0.000
	CHANNELS	6	Xposition	Yposition	Zposition	Yrotation	Xrotation	Zrotation
	JOINT	RokokoGuy_LeftUpLeg
	{
		OFFSET	9.077	-0.000	0.019
		CHANNELS	3	Yrotation	Xrotation	Zrotation
		JOINT	RokokoGuy_LeftLeg
		{
			OFFSET	-0.000	-45.393	-0.000
			CHANNELS	3	Yrotation	Xrotation	Zrotation
			JOINT	RokokoGuy_LeftFoot
			{
				OFFSET	0.000	-42.407	-0.000
				CHANNELS	3	Yrotation	Xrotation	Zrotation
				JOINT	RokokoGuy_LeftToe
				{
					OFFSET	-0.000	-14.938	9.105
					CHANNELS	3	Yrotation	Xrotation	Zrotation
					End Site
					{
						OFFSET	0.000	-7.314	0.000
					}
				}
			}
		}
	}
	JOINT	RokokoGuy_RightUpLeg
	{
		OFFSET	-9.077	-0.000	0.019
		CHANNELS	3	Yrotation	Xrotation	Zrotation
		JOINT	RokokoGuy_RightLeg
		{
			OFFSET	0.000	-45.393	0.000
			CHANNELS	3	Yrotation	Xrotation	Zrotation
			JOINT	RokokoGuy_RightFoot
			{
				OFFSET	-0.000	-42.407	0.000
				CHANNELS	3	Yrotation	Xrotation	Zrotation
				JOINT	RokokoGuy_RightToe
				{
					OFFSET	-0.000	-14.938	9.105
					CHANNELS	3	Yrotation	Xrotation	Zrotation
					End Site
					{
						OFFSET	0.000	-7.314	0.000
					}
				}
			}
		}
	}
	JOINT	RokokoGuy_Spine
	{
		OFFSET	-0.000	9.333	0.000
		CHANNELS	3	Yrotation	Xrotation	Zrotation
		JOINT	RokokoGuy_Spine2
		{
			OFFSET	0.000	-26.413	-0.000
			CHANNELS	3	Yrotation	Xrotation	Zrotation
			JOINT	RokokoGuy_LeftShoulder
			{
				OFFSET	-3.399	-25.254	0.020
				CHANNELS	3	Yrotation	Xrotation	Zrotation
				JOINT	RokokoGuy_LeftArm
				{
					OFFSET	0.000	-16.612	0.000
					CHANNELS	3	Yrotation	Xrotation	Zrotation
					JOINT	RokokoGuy_LeftForeArm
					{
						OFFSET	-0.000	-29.481	-0.000
						CHANNELS	3	Yrotation	Xrotation	Zrotation
						JOINT	RokokoGuy_LeftHand
						{
							OFFSET	-0.000	-26.541	-0.000
							CHANNELS	3	Yrotation	Xrotation	Zrotation
							End Site
							{
								OFFSET	-0.000	-19.378	0.000
							}
							JOINT	RokokoGuy_LeftIndex01
							{
								OFFSET	3.086	-8.947	0.000
								CHANNELS	3	Yrotation	Xrotation	Zrotation
								JOINT	RokokoGuy_LeftIndex02
								{
									OFFSET	-0.000	-4.214	0.000
									CHANNELS	3	Yrotation	Xrotation	Zrotation
									JOINT	RokokoGuy_LeftIndex03
									{
										OFFSET	0.000	-2.706	0.000
										CHANNELS	3	Yrotation	Xrotation	Zrotation
										End Site
										{
											OFFSET	0.000	-2.209	0.000
										}
									}
								}
							}
							JOINT	RokokoGuy_LeftMiddle01
							{
								OFFSET	0.949	-9.603	0.000
								CHANNELS	3	Yrotation	Xrotation	Zrotation
								JOINT	RokokoGuy_LeftMiddle02
								{
									OFFSET	-0.000	-4.348	0.000
									CHANNELS	3	Yrotation	Xrotation	Zrotation
									JOINT	RokokoGuy_LeftMiddle03
									{
										OFFSET	0.000	-2.809	0.000
										CHANNELS	3	Yrotation	Xrotation	Zrotation
										End Site
										{
											OFFSET	0.000	-2.725	0.000
										}
									}
								}
							}
							JOINT	RokokoGuy_LeftPinky01
							{
								OFFSET	-2.814	-8.621	0.000
								CHANNELS	3	Yrotation	Xrotation	Zrotation
								JOINT	RokokoGuy_LeftPinky02
								{
									OFFSET	-0.000	-3.081	0.000
									CHANNELS	3	Yrotation	Xrotation	Zrotation
									JOINT	RokokoGuy_LeftPinky03
									{
										OFFSET	0.000	-1.853	0.000
										CHANNELS	3	Yrotation	Xrotation	Zrotation
										End Site
										{
											OFFSET	0.000	-2.129	0.000
										}
									}
								}
							}
							JOINT	RokokoGuy_LeftRing01
							{
								OFFSET	-0.976	-9.441	0.000
								CHANNELS	3	Yrotation	Xrotation	Zrotation
								JOINT	RokokoGuy_LeftRing02
								{
									OFFSET	-0.000	-3.760	0.000
									CHANNELS	3	Yrotation	Xrotation	Zrotation
									JOINT	RokokoGuy_LeftRing03
									{
										OFFSET	0.000	-2.556	0.000
										CHANNELS	3	Yrotation	Xrotation	Zrotation
										End Site
										{
											OFFSET	0.000	-2.551	0.000
										}
									}
								}
							}
							JOINT	RokokoGuy_LeftThumb01
							{
								OFFSET	2.311	-2.752	2.326
								CHANNELS	3	Yrotation	Xrotation	Zrotation
								JOINT	RokokoGuy_LeftThumb02
								{
									OFFSET	0.000	-4.214	-0.000
									CHANNELS	3	Yrotation	Xrotation	Zrotation
									JOINT	RokokoGuy_LeftThumb03
									{
										OFFSET	0.000	-2.706	0.000
										CHANNELS	3	Yrotation	Xrotation	Zrotation
										End Site
										{
											OFFSET	0.000	-2.913	-0.000
										}
									}
								}
							}
						}
					}
				}
			}
			JOINT	RokokoGuy_Neck
			{
				OFFSET	-0.000	-25.254	0.014
				CHANNELS	3	Yrotation	Xrotation	Zrotation
				JOINT	RokokoGuy_Head
				{
					OFFSET	-0.000	-9.300	0.006
					CHANNELS	3	Yrotation	Xrotation	Zrotation
					End Site
					{
						OFFSET	-0.000	-21.700	-0.001
					}
				}
			}
			JOINT	RokokoGuy_RightShoulder
			{
				OFFSET	3.399	-25.254	0.020
				CHANNELS	3	Yrotation	Xrotation	Zrotation
				JOINT	RokokoGuy_RightArm
				{
					OFFSET	-0.000	-16.548	-1.448
					CHANNELS	3	Yrotation	Xrotation	Zrotation
					JOINT	RokokoGuy_RightForeArm
					{
						OFFSET	0.000	-29.481	0.000
						CHANNELS	3	Yrotation	Xrotation	Zrotation
						JOINT	RokokoGuy_RightHand
						{
							OFFSET	-0.000	-26.541	-0.000
							CHANNELS	3	Yrotation	Xrotation	Zrotation
							End Site
							{
								OFFSET	-0.000	-19.378	0.000
							}
							JOINT	RokokoGuy_RightIndex005
							{
								OFFSET	-3.086	-8.947	0.000
								CHANNELS	3	Yrotation	Xrotation	Zrotation
								JOINT	RokokoGuy_RightIndex006
								{
									OFFSET	-0.000	-4.214	0.000
									CHANNELS	3	Yrotation	Xrotation	Zrotation
									JOINT	RokokoGuy_RightIndex007
									{
										OFFSET	0.000	-2.706	0.000
										CHANNELS	3	Yrotation	Xrotation	Zrotation
										End Site
										{
											OFFSET	0.000	-2.209	0.000
										}
									}
								}
							}
							JOINT	RokokoGuy_RightMiddle004
							{
								OFFSET	-0.949	-9.603	0.000
								CHANNELS	3	Yrotation	Xrotation	Zrotation
								JOINT	RokokoGuy_RightMiddle005
								{
									OFFSET	-0.000	-4.348	0.000
									CHANNELS	3	Yrotation	Xrotation	Zrotation
									JOINT	RokokoGuy_RightMiddle006
									{
										OFFSET	0.000	-2.809	0.000
										CHANNELS	3	Yrotation	Xrotation	Zrotation
										End Site
										{
											OFFSET	0.000	-2.725	0.000
										}
									}
								}
							}
							JOINT	RokokoGuy_RightPinky004
							{
								OFFSET	2.814	-8.621	0.000
								CHANNELS	3	Yrotation	Xrotation	Zrotation
								JOINT	RokokoGuy_RightPinky005
								{
									OFFSET	-0.000	-3.081	0.000
									CHANNELS	3	Yrotation	Xrotation	Zrotation
									JOINT	RokokoGuy_RightPinky006
									{
										OFFSET	0.000	-1.853	0.000
										CHANNELS	3	Yrotation	Xrotation	Zrotation
										End Site
										{
											OFFSET	0.000	-2.129	0.000
										}
									}
								}
							}
							JOINT	RokokoGuy_RightRing004
							{
								OFFSET	0.976	-9.442	0.000
								CHANNELS	3	Yrotation	Xrotation	Zrotation
								JOINT	RokokoGuy_RightRing005
								{
									OFFSET	-0.000	-3.760	0.000
									CHANNELS	3	Yrotation	Xrotation	Zrotation
									JOINT	RokokoGuy_RightRing006
									{
										OFFSET	0.000	-2.556	0.000
										CHANNELS	3	Yrotation	Xrotation	Zrotation
										End Site
										{
											OFFSET	0.000	-2.551	0.000
										}
									}
								}
							}
							JOINT	RokokoGuy_RightThumb004
							{
								OFFSET	-2.311	-2.752	2.326
								CHANNELS	3	Yrotation	Xrotation	Zrotation
								JOINT	RokokoGuy_RightThumb005
								{
									OFFSET	0.000	-4.214	0.000
									CHANNELS	3	Yrotation	Xrotation	Zrotation
									JOINT	RokokoGuy_RightThumb006
									{
										OFFSET	0.000	-2.706	0.000
										CHANNELS	3	Yrotation	Xrotation	Zrotation
										End Site
										{
											OFFSET	-0.000	-2.913	0.000
										}
									}
								}
							}
						}
					}
				}
			}
		}
	}
}
MOTION
Frames:	4
Frame Time:	0.033
-469.060	91.484	114.202	173.382	1.847	351.197	277.143	4.015	26.132	355.923	1.902	11.538	121.334	84.503	204.028	-0.000	-0.000	-0.000	95.132	343.233	8.023	11.194	352.061	5.713	223.133	76.260	131.073	-0.000	-0.000	-0.000	2.991	1.060	188.318	357.009	358.940	8.318	0.230	355.591	261.759	6.311	281.895	259.043	3.990	0.577	0.078	348.822	4.546	352.692	-0.000	0.000	-0.000	-0.000	-0.000	-0.000	-0.000	-0.000	-0.000	-0.000	0.000	-0.000	-0.000	-0.000	-0.000	-0.000	-0.000	-0.000	-0.000	0.000	-0.000	-0.000	-0.000	-0.000	-0.000	-0.000	-0.000	-0.000	0.000	-0.000	-0.000	-0.000	-0.000	-0.000	-0.000	-0.000	314.950	14.813	35.071	0.000	0.000	-0.000	0.000	0.000	-0.000	356.934	359.588	356.906	356.934	359.588	356.906	9.484	1.591	87.526	118.219	282.296	315.455	4.071	359.902	335.599	6.066	349.303	1.451	0.000	0.000	0.000	0.000	-0.000	-0.000	0.000	-0.000	-0.000	0.000	0.000	0.000	0.000	-0.000	-0.000	0.000	-0.000	-0.000	0.000	0.000	0.000	0.000	-0.000	-0.000	0.000	-0.000	-0.000	0.000	0.000	0.000	0.000	-0.000	-0.000	0.000	-0.000	-0.000	45.050	14.813	324.929	0.000	-0.000	-0.000	0.000	-0.000	-0.000	
-469.188	90.992	110.333	172.638	1.541	350.762	277.158	3.981	26.828	357.725	1.780	7.844	124.369	81.734	207.905	-0.000	-0.000	-0.000	95.828	343.438	8.962	11.067	351.124	8.261	227.407	76.528	135.272	-0.000	-0.000	-0.000	3.250	1.318	188.363	356.750	358.682	8.363	359.926	355.639	261.744	5.352	281.728	260.519	4.271	0.041	1.284	349.005	4.688	353.197	-0.000	0.000	-0.000	-0.000	-0.000	-0.000	-0.000	-0.000	-0.000	-0.000	0.000	-0.000	-0.000	-0.000	-0.000	-0.000	-0.000	-0.000	-0.000	0.000	-0.000	-0.000	-0.000	-0.000	-0.000	-0.000	-0.000	-0.000	0.000	-0.000	-0.000	-0.000	-0.000	-0.000	-0.000	-0.000	314.950	14.813	35.071	0.000	0.000	-0.000	0.000	0.000	-0.000	356.700	0.165	356.804	356.700	0.165	356.804	9.000	1.674	87.627	121.356	282.069	312.684	4.830	359.408	336.490	6.879	348.981	1.280	0.000	0.000	0.000	0.000	-0.000	-0.000	0.000	-0.000	-0.000	0.000	0.000	0.000	0.000	-0.000	-0.000	0.000	-0.000	-0.000	0.000	0.000	0.000	0.000	-0.000	-0.000	0.000	-0.000	-0.000	0.000	0.000	0.000	0.000	-0.000	-0.000	0.000	-0.000	-0.000	45.050	14.813	324.929	0.000	-0.000	-0.000	0.000	-0.000	-0.000	
-469.749	89.971	105.289	171.867	1.150	350.194	276.617	4.152	27.455	357.462	1.988	1.676	128.479	78.407	210.674	-0.000	-0.000	-0.000	95.707	344.156	9.890	11.285	349.350	12.617	231.756	76.622	139.445	-0.000	-0.000	-0.000	3.388	1.487	188.490	356.612	358.513	8.489	359.197	355.675	261.693	4.734	281.461	261.555	4.475	359.841	2.091	349.078	4.780	353.625	-0.000	0.000	-0.000	-0.000	-0.000	-0.000	-0.000	-0.000	-0.000	-0.000	0.000	-0.000	-0.000	-0.000	-0.000	-0.000	-0.000	-0.000	-0.000	0.000	-0.000	-0.000	-0.000	-0.000	-0.000	-0.000	-0.000	-0.000	0.000	-0.000	-0.000	-0.000	-0.000	-0.000	-0.000	-0.000	314.950	14.813	35.071	0.000	0.000	-0.000	0.000	0.000	-0.000	356.302	0.388	356.702	356.302	0.388	356.702	8.083	1.651	87.519	125.777	282.127	309.038	5.032	359.193	337.240	8.333	347.771	1.126	0.000	0.000	0.000	0.000	-0.000	-0.000	0.000	-0.000	-0.000	0.000	0.000	0.000	0.000	-0.000	-0.000	0.000	-0.000	-0.000	0.000	0.000	0.000	0.000	-0.000	-0.000	0.000	-0.000	-0.000	0.000	0.000	0.000	0.000	-0.000	-0.000	0.000	-0.000	-0.000	45.050	14.813	324.929	0.000	-0.000	-0.000	0.000	-0.000	-0.000	
-471.169	90.290	99.606	169.726	0.239	349.135	276.127	5.128	26.401	0.546	2.993	359.459	171.391	84.631	256.710	-0.000	-0.000	-0.000	96.453	345.764	10.499	11.173	346.555	17.672	234.267	77.390	140.942	-0.000	-0.000	-0.000	4.213	1.558	188.790	355.787	358.442	8.789	358.451	355.545	261.221	1.490	281.823	265.075	4.167	359.436	3.389	349.527	5.024	354.772	-0.000	0.000	-0.000	-0.000	-0.000	-0.000	-0.000	-0.000	-0.000	-0.000	0.000	-0.000	-0.000	-0.000	-0.000	-0.000	-0.000	-0.000	-0.000	0.000	-0.000	-0.000	-0.000	-0.000	-0.000	-0.000	-0.000	-0.000	0.000	-0.000	-0.000	-0.000	-0.000	-0.000	-0.000	-0.000	314.950	14.813	35.071	0.000	0.000	-0.000	0.000	0.000	-0.000	355.842	0.325	356.487	355.842	0.325	356.487	7.490	1.052	87.536	132.370	283.631	303.638	5.167	358.882	338.350	10.574	345.824	0.255	0.000	0.000	0.000	0.000	-0.000	-0.000	0.000	-0.000	-0.000	0.000	0.000	0.000	0.000	-0.000	-0.000	0.000	-0.000	-0.000	0.000	0.000	0.000	0.000	-0.000	-0.000	0.000	-0.000	-0.000	0.000	0.000	0.000	0.000	-0.000	-0.000	0.000	-0.000	-0.000	45.050	14.813	324.929	0.000	-0.000	-0.000	0.000	-0.000	-0.000	
